<?xml version="1.0" encoding="UTF-8"?>
<svg width="19px" height="20px" viewBox="0 0 19 20" version="1.1" xmlns="http://www.w3.org/2000/svg" xmlns:xlink="http://www.w3.org/1999/xlink">
    <title>形状</title>
    <g id="模版1" stroke="none" stroke-width="1" fill="none" fill-rule="evenodd">
        <g id="首页---Px" transform="translate(-1056.000000, -109.000000)" fill="#FFFFFF" fill-rule="nonzero">
            <g id="编组-15" transform="translate(1040.000000, 96.000000)">
                <path d="M31.5454028,33 L19.4545339,33 C17.5466475,33 16,31.4431357 16,29.5226463 L16,24.3013996 L17.727267,24.3013996 C17.7537467,24.2973583 17.7799837,24.2918441 17.8058576,24.2848822 C18.1297171,24.2943865 18.4360578,24.1370911 18.6185367,23.8675998 L21.2491643,19.6947753 L23.1888851,26.984178 C23.3024204,27.4005037 23.886701,27.6753021 23.9152009,27.6918195 C24.326997,27.9258694 25.1348568,27.764589 25.3807869,27.3579936 L27.4310528,23.8745545 L28.3810497,25.4776145 C28.5195117,25.7299284 29.6131036,26.5454265 29.8094995,26.3356516 C29.8558536,26.3840478 30.9715403,25.9104212 31.2465856,25.4810919 L32.4617179,23.4320612 L35,23.4320612 L35,29.5174302 C35.0013123,30.4405852 34.6379609,31.3264043 33.989961,31.9796632 C33.3419611,32.6329221 32.4625006,33 31.5454028,33 Z M29.8181358,24.2083804 L28.6565487,22.2558463 C28.4534532,21.9321738 27.8611423,21.5421194 27.8447333,21.5325567 C27.4329753,21.2987476 26.7255074,21.7082193 26.4801923,22.1150135 L24.5499715,25.3845953 L22.6240688,18.1395288 C22.5463904,17.8550219 22.343388,17.2945319 21.72589,17.1815179 C21.1083921,17.0685039 20.5729099,17.360258 20.286213,17.7796227 L17.2704049,22.5627228 L16,22.5627228 L16,16.4773537 C16,14.5568643 17.5466475,13 19.4545339,13 L31.5454028,13 C33.4532892,13 34.9999367,14.5568643 34.9999367,16.4773537 L34.9999367,21.6933843 L31.5454028,21.6933843 C31.2863127,21.9628792 30.7105571,22.8012113 29.8181358,24.2083804 Z" id="形状"></path>
            </g>
        </g>
    </g>
</svg>