<?xml version="1.0" encoding="UTF-8"?>
<svg width="38px" height="22px" viewBox="0 0 38 22" version="1.1" xmlns="http://www.w3.org/2000/svg" xmlns:xlink="http://www.w3.org/1999/xlink">
    <title>形状</title>
    <defs>
        <linearGradient x1="0%" y1="33.2409972%" x2="100%" y2="66.7590028%" id="linearGradient-1">
            <stop stop-color="#FF8D37" offset="0%"></stop>
            <stop stop-color="#FF6650" offset="100%"></stop>
        </linearGradient>
    </defs>
    <g id="模版1" stroke="none" stroke-width="1" fill="none" fill-rule="evenodd">
        <g id="首页---Px" transform="translate(-136.000000, -450.000000)" fill="url(#linearGradient-1)" fill-rule="nonzero">
            <g id="公告-(1)" transform="translate(136.000000, 450.000000)">
                <path d="M37.8429125,5.86666667 L34.9440029,18.3333333 C34.3475522,20.2011333 32.4944242,22 30.5956385,22 L4.50545192,22 C3.09138746,21.9686339 1.7699535,21.2816527 0.921310991,20.1366928 C0.0726684853,18.991733 -0.209092445,17.5157377 0.157087496,16.1333333 L3.80826417,3.63513333 C4.35036026,1.7666 6.23030315,0 8.12908894,0 L33.4945481,0 C34.9086125,0.0313661238 36.2300465,0.718347304 37.078689,1.86330716 C37.9273315,3.00826702 38.2090924,4.48426233 37.8429125,5.86666667 Z M21.2227389,16.8395333 L28.4214562,16.8666667 C29.0028889,16.8830189 29.5653399,16.656489 29.9766336,16.2403113 C30.3879273,15.8241336 30.6117988,15.2550036 30.5956385,14.6666667 L30.5956385,11.7333333 L21.1741822,11.7333333 L21.2227389,16.8395333 Z M8.12908894,16.1333333 L8.85381634,16.1333333 C10.9692956,16.1883333 13.2202989,16.1142667 16.1010904,16.1333333 C16.0709417,16.376826 16.0709417,16.623174 16.1010904,16.8666667 L17.5505452,16.8666667 C17.2318324,15.3496829 16.745629,13.8737521 16.1010904,12.4666667 L14.6516356,12.4666667 C14.9932098,13.1623013 15.2371397,13.9027808 15.376363,14.6666667 C12.9796895,14.6710667 12.0933478,14.6666667 10.3032712,14.6666667 C11.6354549,13.4837429 12.6354437,11.9659478 13.2021808,10.2666667 L11.0279986,10.2666667 C10.4129747,11.9414776 9.42037802,13.4480529 8.12908894,14.6666667 L8.12908894,16.1333333 L8.12908894,16.1333333 Z M9.57854376,5.86666667 C9.33373042,7.70691039 8.26422697,9.33021563 6.67963413,10.2666667 L6.67963413,11.7333333 C9.23750177,10.7646422 11.1434147,8.56059077 11.752726,5.86666667 L9.57854376,5.86666667 Z M18.2752726,10.2666667 C16.6642957,9.35884029 15.5849159,7.72054461 15.376363,5.86666667 L13.2021808,5.86666667 C13.7950948,8.56902474 15.7069671,10.7799678 18.2752726,11.7333333 L18.2752726,10.2666667 L18.2752726,10.2666667 Z M32.0450933,9.53333333 L26.9720014,9.53333333 L26.9720014,8.06666667 L30.5956385,8.06666667 L30.5956385,6.6 L26.9720014,6.6 L26.9720014,5.13333333 L25.5225466,5.13333333 L25.5225466,6.6 L23.3483644,6.6 C23.2960523,6.11254392 23.2960523,5.62078941 23.3483644,5.13333333 L21.8989096,5.13333333 C21.8260749,6.26878408 21.3034546,7.32643651 20.4494548,8.06666667 L20.4494548,8.8 C21.2250409,8.75189887 21.9746462,8.49906334 22.623637,8.06666667 L25.5225466,8.06666667 L25.5225466,9.53333333 L19.7247274,9.53333333 L19.7247274,11 L32.0450933,11 L32.0450933,9.53333333 L32.0450933,9.53333333 Z M28.4214562,15.4 L22.623637,15.4 L22.623637,13.2 L29.1461837,13.2 L29.1461837,14.6666667 C29.2241948,14.8758502 29.173922,15.1118751 29.017681,15.2699714 C28.86144,15.4280678 28.628185,15.4789375 28.4214562,15.4 Z" id="形状"></path>
            </g>
        </g>
    </g>
</svg>