<?xml version="1.0" encoding="UTF-8"?>
<svg width="120px" height="120px" viewBox="0 0 120 120" version="1.1" xmlns="http://www.w3.org/2000/svg" xmlns:xlink="http://www.w3.org/1999/xlink">
    <title>load-2</title>
    <g id="缺省" stroke="none" stroke-width="1" fill="none" fill-rule="evenodd">
        <g id="load-2">
            <rect id="矩形" fill="#FFFFFF" x="0" y="0" width="120" height="120"></rect>
            <path d="M120,59.9070072 C120,26.7950229 93.1633835,0 60,0 C26.8366165,0 0,26.7950229 0,59.9070072 C0,78.4413883 8.41251448,95.0320891 21.6917729,106 L21.6917729,64.5579568 C21.6917729,43.3857236 38.8644264,26.3091028 60.0695249,26.3091028 C81.2746234,26.3091028 98.4472769,43.4551408 98.4472769,64.5579568 L98.4472769,105.861166 C111.587486,94.8932547 120,78.3719712 120,59.9070072 Z" id="路径" fill="#FF614A" fill-rule="nonzero"></path>
            <path d="M38,63 L38,64.1741742 C38,76.1921922 47.847619,86 60,86 C72.152381,86 82,76.1921922 82,64.1741742 L82,63 L38,63 Z M71,55 C73.7536232,55 76,52.7536232 76,50 C76,47.2463768 73.7536232,45 71,45 C68.2463768,45 66,47.2463768 66,50 C66,52.7536232 68.2463768,55 71,55 Z M49,55 C51.7536232,55 54,52.7536232 54,50 C54,47.2463768 51.7536232,45 49,45 C46.2463768,45 44,47.2463768 44,50 C44,52.7536232 46.2463768,55 49,55 Z" id="形状" fill="#FF614A" fill-rule="nonzero"></path>
        </g>
    </g>
</svg>