<?xml version="1.0" encoding="UTF-8"?>
<svg width="36px" height="36px" viewBox="0 0 36 36" version="1.1" xmlns="http://www.w3.org/2000/svg" xmlns:xlink="http://www.w3.org/1999/xlink">
    <title>编组 2</title>
    <defs>
        <circle id="path-1" cx="18" cy="18" r="18"></circle>
        <filter x="-8.3%" y="-8.3%" width="116.7%" height="116.7%" filterUnits="objectBoundingBox" id="filter-2">
            <feGaussianBlur stdDeviation="2" in="SourceAlpha" result="shadowBlurInner1"></feGaussianBlur>
            <feOffset dx="0" dy="-2" in="shadowBlurInner1" result="shadowOffsetInner1"></feOffset>
            <feComposite in="shadowOffsetInner1" in2="SourceAlpha" operator="arithmetic" k2="-1" k3="1" result="shadowInnerInner1"></feComposite>
            <feColorMatrix values="0 0 0 0 0   0 0 0 0 0   0 0 0 0 0  0 0 0 0.04 0" type="matrix" in="shadowInnerInner1"></feColorMatrix>
        </filter>
    </defs>
    <g id="模版1" stroke="none" stroke-width="1" fill="none" fill-rule="evenodd">
        <g id="首页---Px" transform="translate(-1232.000000, -18.000000)">
            <g id="编组-5" transform="translate(1128.000000, 18.000000)">
                <g id="编组-2" transform="translate(104.000000, 0.000000)">
                    <g id="椭圆形">
                        <use fill="#FFFFFF" fill-rule="evenodd" xlink:href="#path-1"></use>
                        <use fill="black" fill-opacity="1" filter="url(#filter-2)" xlink:href="#path-1"></use>
                    </g>
                    <g id="钱包2" transform="translate(8.100000, 9.900000)" fill-rule="nonzero">
                        <path d="M15.6128214,11.0874699 C13.8,11.0874699 12.3314149,9.68834773 12.3314149,7.96238142 C12.3314149,6.23641512 13.8,4.83729294 15.6128214,4.83729294 L19.6990124,4.83729294 L19.6990124,3.02990231 C19.6990124,1.35668979 18.2750724,0 16.5174698,0 L3.18154265,0 C1.42511493,0 0,1.35668979 0,3.02990231 L0,13.1700977 C0,14.8433102 1.42394006,16.2 3.18154265,16.2 L16.5174698,16.2 C18.2738975,16.2 19.6990124,14.8433102 19.6990124,13.1700977 L19.6990124,11.0874699 L15.6128214,11.0874699 Z" id="路径" fill="#FF6650"></path>
                        <path d="M20.0714456,6.04489594 L18.5288439,6.04489594 L16.3694364,9.98996177 L20.0714456,9.98996177 C20.4192065,9.98996177 20.7,9.71472462 20.7,9.37641229 L20.7,6.65959224 C20.7,6.32013309 20.4180317,6.04489594 20.0714456,6.04489594 Z" id="路径" fill="#FF6650"></path>
                        <path d="M16.5174698,0 L3.18154265,0 C1.42511493,0 0,1.35668979 0,3.02990231 L0,13.1700977 C0,14.8433102 1.42394006,16.2 3.18154265,16.2 L5.91193598,16.2 C9.71380896,15.5474586 13.1526477,13.7240125 15.7714286,11.0874699 L15.6128214,11.0874699 C13.8,11.0874699 12.3314149,9.68834773 12.3314149,7.96238142 C12.3314149,6.23641512 13.8011749,4.83729294 15.6128214,4.83729294 L19.6990124,4.83729294 L19.6990124,3.02990231 C19.6990124,1.35668979 18.2750724,0 16.5174698,0 Z" id="路径" fill="#FF7561"></path>
                        <path d="M15.3766729,0 L3.18154265,0 C1.42511493,0 0,1.35668979 0,3.02990231 L0,11.6471188 C7.00691299,11.0198074 13.0245871,6.4382557 15.3766729,0 Z" id="路径" fill="#FC8D7D"></path>
                        <path d="M8.85615529,0 L3.18154265,0 C1.42511493,0 0,1.35668979 0,3.02990231 L0,6.38779555 C3.57277371,5.22377177 6.67794994,2.97485488 8.85615529,0 Z" id="路径" fill="#FEB1A6"></path>
                        <path d="M19.2784097,6.04489594 L15.6974119,6.04489594 C14.1959305,6.04489594 13.6766389,6.92794846 13.6766389,8.01742885 C13.6766389,9.10690925 14.1959305,9.98996177 15.6974119,9.98996177 L16.773591,9.98996177 C17.7834476,8.78875598 18.6257233,7.46217981 19.2784097,6.04489594 L19.2784097,6.04489594 Z" id="路径" fill="#FB8675"></path>
                        <path d="M16.906361,7.99793289 C16.9040014,8.51170891 16.4610761,8.93488603 15.9359101,8.92456463 C15.4095692,8.91539006 14.984267,8.48303837 14.9960157,7.96926235 C15.0089392,7.46580773 15.4072195,7.09194393 15.937085,7.08620983 C16.4916227,7.08047572 16.9087008,7.47268866 16.906361,7.99793289 Z M9.10522731,4.67673793 L3.58334752,4.67673793 C3.23620651,4.67673793 2.95479312,4.40204247 2.95479312,4.06318845 L2.95479312,3.89575251 C2.95479312,3.55689849 3.23620651,3.28220303 3.58334752,3.28220303 L9.10522731,3.28220303 C9.45236832,3.28220303 9.73378171,3.55689849 9.73378171,3.89575251 L9.73378171,4.06318845 C9.73378171,4.4026476 9.45298825,4.67673793 9.10522731,4.67673793 L9.10522731,4.67673793 Z" id="形状" fill="#FFFFFF"></path>
                    </g>
                </g>
            </g>
        </g>
    </g>
</svg>