<?xml version="1.0" standalone="no"?><!DOCTYPE svg PUBLIC "-//W3C//DTD SVG 1.1//EN" "http://www.w3.org/Graphics/SVG/1.1/DTD/svg11.dtd"><svg t="1632311186519" class="icon" viewBox="0 0 1024 1024" version="1.1" xmlns="http://www.w3.org/2000/svg" p-id="1403" xmlns:xlink="http://www.w3.org/1999/xlink" width="128" height="128"><defs><style type="text/css"></style></defs><path d="M837.3 839.75h46.29l38.58-296.73h-40.04z" fill="#FAE7E3" p-id="1404"></path><path d="M126.42 836.34h767.91v46.29H126.42z" fill="#FAE7E3" p-id="1405"></path><path d="M818.29 960.22H206.24c-78.32 0-142.02-63.74-142.02-142.06V206.1c0-78.32 63.7-142.06 142.02-142.06l222.19-0.08c21.32 0 38.58 17.25 38.58 38.58s-17.25 38.58-38.58 38.58l-222.19 0.08c-35.79 0-64.87 29.12-64.87 64.91v612.06c0 35.79 29.08 64.91 64.87 64.91H818.3c35.79 0 64.91-29.12 64.91-64.91v-287.7c0-21.32 17.25-38.58 38.58-38.58s38.58 17.25 38.58 38.58v287.7c-0.02 78.31-63.76 142.05-142.08 142.05z" fill="#3A2931" p-id="1406"></path><path d="M492.43 499.15c-64.72 0-129.37-24.56-178.53-73.72l-7.61-7.61c-68.3-68.3-68.3-179.39 0-247.69 15.07-15.07 39.48-15.07 54.55 0s15.07 39.48 0 54.55c-18.5 18.53-28.71 43.13-28.71 69.28 0 26.18 10.21 50.78 28.71 69.32l7.61 7.61c68.26 68.26 179.66 68.26 248.37-0.08l255.5-255.91c15.07-15.07 39.52-15.03 54.59-0.04 15.07 15.07 15.07 39.48 0.04 54.59l-255.6 255.98c-49.44 49.13-114.2 73.72-178.92 73.72z" fill="#3A2931" p-id="1407"></path><path d="M921.78 371.97c-21.32 0-38.58-17.25-38.58-38.58V206.1c0-17.33-6.74-33.6-19.02-45.88-17.67-17.67-39.59-19.02-45.88-19.02H692.85c-21.32 0-38.58-17.25-38.58-38.58s17.25-38.58 38.58-38.58H818.3c17.67 0 62.87 4.07 100.43 41.63 26.86 26.82 41.63 62.5 41.63 100.43v127.3c-0.01 21.32-17.26 38.57-38.58 38.57z" fill="#E23B28" p-id="1408"></path></svg>