<?xml version="1.0" standalone="no"?><!DOCTYPE svg PUBLIC "-//W3C//DTD SVG 1.1//EN" "http://www.w3.org/Graphics/SVG/1.1/DTD/svg11.dtd"><svg t="1632310817810" class="icon" viewBox="0 0 1024 1024" version="1.1" xmlns="http://www.w3.org/2000/svg" p-id="936" xmlns:xlink="http://www.w3.org/1999/xlink" width="128" height="128"><defs><style type="text/css"></style></defs><path d="M770.33 496.84h44.84v384.6h-44.84z" fill="#FAE7E3" p-id="937"></path><path d="M172.84 837.82h692.92v44.84H172.84z" fill="#FAE7E3" p-id="938"></path><path d="M813.43 957.4H212.88c-42.4 0-76.88-34.48-76.88-76.84V490.03c0-20.65 16.71-37.36 37.36-37.36s37.36 16.71 37.36 37.36v390.52l602.7 2.12 2.15-392.64c0-20.65 16.71-37.36 37.36-37.36s37.36 16.71 37.36 37.36v390.52c0.02 42.37-34.46 76.85-76.86 76.85z" fill="#3A2931" p-id="939"></path><path d="M513.84 694.54m-70.35 0a70.35 70.35 0 1 0 140.7 0 70.35 70.35 0 1 0-140.7 0Z" fill="#E23B28" p-id="940"></path><path d="M904.9 418.95c-20.65 0-37.36-16.53-37.36-37.18v-0.36c0-2.08 0.18-4.16 0.51-6.24 0.58-3.43 0.84-6.9 1.09-10.33 0.26-2.41 0.58-4.01 0.44-5.84-0.11-1.06-0.15-3.28-0.15-4.38 0-6.17-1.09-12.7-3.47-20.94l-19.59-65.93c-0.55-1.24-0.99-2.52-1.39-3.83l-37.65-126.36H219.2l-58.74 196.48c-0.77 2.96-1.97 7.33-2.48 11.42-0.66 4.01-0.84 6.79-0.84 9.56 0 2.66-0.29 5.29-0.84 7.88 0 20.62-16.49 36.41-37.14 36.41S82 381.7 82 361.05c0-2.15 0-5.33 0.44-9.01 0.15-6.02 0.69-12 1.61-17.59 0.73-5.76 2.59-13.43 4.49-20.65l67.03-224.29c4.71-15.84 19.27-26.67 35.79-26.67h643.82c16.53 0 31.09 10.87 35.79 26.71l44.51 149.38c0.58 1.31 1.06 2.66 1.5 4.05l20.72 69.73c4.38 15.29 6.46 28.75 6.46 41.56 0.44 4.74 0.07 10.62-0.58 17.11-0.36 4.82-0.84 10.14-1.71 15.51-2.63 18.05-18.18 32.06-36.97 32.06z" fill="#3A2931" p-id="941"></path><path d="M253.93 563.88c-94.79 0-171.93-91-171.93-202.83 0-2.15 0-5.33 0.44-9.01 0.15-6.02 0.69-12 1.61-17.59 3.47-20.36 22.77-33.86 43.09-30.61 20.36 3.47 34.04 22.73 30.61 43.09-0.44 2.55-0.62 5.33-0.62 8.1 0 2.66-0.29 5.29-0.84 7.88 0.44 68.78 44.04 126.25 97.64 126.25 24.34 0 47.58-12.3 65.42-34.59 13.57-16.6 23.06-37 27.66-59.26 4.2-20.25 23.94-33.09 44.19-29.01 20.21 4.2 33.2 23.97 29.01 44.19-7.04 33.93-21.82 65.42-42.69 91.04-31.64 39.51-76.77 62.35-123.59 62.35z" fill="#3A2931" p-id="942"></path><path d="M513.28 563.88c-47.21 0-91.25-22.15-123.98-62.39-20.54-25.21-35.17-56.7-42.29-91-4.2-20.21 8.79-39.99 29.01-44.19 20.1-4.09 39.95 8.76 44.19 29.01 4.67 22.62 14.05 43.06 27.04 59.04 12.92 15.87 34.88 34.81 66.04 34.81 31.12 0 53.09-18.94 66.01-34.81 13.9-17.26 23.64-39.11 28.02-63.05 3.69-20.29 23.24-33.86 43.46-30.03 20.32 3.72 33.75 23.17 30.03 43.46-6.6 36.2-21.64 69.58-43.46 96.65-32.85 40.35-76.85 62.5-124.07 62.5z" fill="#3A2931" p-id="943"></path><path d="M772.6 553.34c-41.34 0-81.29-17.48-112.56-49.22-25.14-25.58-43.2-59.26-52.32-97.42-4.78-20.07 7.59-40.25 27.66-45.03 20.14-4.74 40.25 7.59 45.03 27.66 5.87 24.59 17.59 46.78 32.95 62.39 12.04 12.26 32.15 26.89 59.26 26.89 45.54 0 85.38-42.51 95.16-101.29 0.11-0.73 0.18-1.46 0.29-2.15 0.58-3.43 0.84-6.9 1.09-10.33 0.26-2.41 0.58-4.01 0.44-5.84-0.11-1.06-0.15-3.28-0.15-4.38 0-20.65 16.71-37.55 37.36-37.55s37.36 16.53 37.36 37.18c0.44 4.74 0.07 10.62-0.58 17.11-0.33 4.49-0.77 9.41-1.53 14.41a24.9 24.9 0 0 1-0.26 1.82c-15.15 96.06-86.3 165.75-169.2 165.75z" fill="#3A2931" p-id="944"></path></svg>