<?xml version="1.0" standalone="no"?><!DOCTYPE svg PUBLIC "-//W3C//DTD SVG 1.1//EN" "http://www.w3.org/Graphics/SVG/1.1/DTD/svg11.dtd"><svg t="1632311624529" class="icon" viewBox="0 0 1024 1024" version="1.1" xmlns="http://www.w3.org/2000/svg" p-id="2029" xmlns:xlink="http://www.w3.org/1999/xlink" width="128" height="128"><defs><style type="text/css"></style></defs><path d="M917.03466667 356.74666667c0 0.56533333 0.08533333 1.10933333 0.08533333 1.67466666 0 255.95733333-207.49866667 463.456-463.46666667 463.456-75.57333333 0-146.69866667-18.464-209.728-50.54933333C317.152 859.73333333 427.73333333 916.07466667 551.488 916.07466667c220.46933333 0 399.2-178.73066667 399.2-399.2 0.01066667-56.98133333-12.128-111.08266667-33.65333333-160.128z" fill="#FAE7E3" p-id="2030"></path><path d="M561.568 939.648c-118.64533333 0-232.97066667-49.92-313.67466667-136.928-14.848-15.97866667-13.90933333-40.94933333 2.10133334-55.79733333 15.97866667-14.80533333 40.91733333-13.952 55.79733333 2.10133333 65.81333333 70.912 159.01866667 111.59466667 255.76533333 111.59466667 192.29866667 0 348.736-156.448 348.736-348.736S753.86666667 163.14666667 561.568 163.14666667 212.832 319.59466667 212.832 511.89333333c0 21.824-17.68533333 39.50933333-39.50933333 39.50933334s-39.50933333-17.68533333-39.50933334-39.50933334c0-235.86133333 191.904-427.76533333 427.76533334-427.76533333S989.33333333 276.032 989.33333333 511.89333333 797.42933333 939.648 561.568 939.648z" fill="#3A2931" p-id="2031"></path><path d="M556.352 555.41333333c-21.824 0-39.50933333-17.68533333-39.50933333-39.50933333V269.36533333c0-21.824 17.68533333-39.50933333 39.50933333-39.50933333s39.50933333 17.68533333 39.50933333 39.50933333v246.53866667c0 21.824-17.68533333 39.50933333-39.50933333 39.50933333z" fill="#3A2931" p-id="2032"></path><path d="M664.36266667 669.26933333c-10.09066667 0-20.224-3.86133333-27.936-11.57333333l-108.01066667-108.05333333c-15.43466667-15.43466667-15.392-40.448 0-55.872 15.43466667-15.43466667 40.448-15.43466667 55.872 0l108.01066667 108.05333333c15.43466667 15.43466667 15.392 40.448 0 55.872-7.712 7.712-17.84533333 11.57333333-27.936 11.57333333z" fill="#3A2931" p-id="2033"></path><path d="M199.11466667 693.93066667l121.568-184.69333334c9.99466667-15.18933333-0.896-35.40266667-19.08266667-35.40266666H58.464c-18.18666667 0-29.07733333 20.21333333-19.08266667 35.40266666l121.568 184.69333334c9.024 13.70666667 29.13066667 13.70666667 38.16533334 0z" fill="#E23B28" p-id="2034"></path></svg>