<?xml version="1.0" standalone="no"?><!DOCTYPE svg PUBLIC "-//W3C//DTD SVG 1.1//EN" "http://www.w3.org/Graphics/SVG/1.1/DTD/svg11.dtd"><svg t="1632311501818" class="icon" viewBox="0 0 1024 1024" version="1.1" xmlns="http://www.w3.org/2000/svg" p-id="1715" xmlns:xlink="http://www.w3.org/1999/xlink" width="128" height="128"><defs><style type="text/css"></style></defs><path d="M756.59 223.42h45.18v646.66h-45.18z" fill="#FAE7E3" p-id="1716"></path><path d="M185.17 839.16h656.48v45.18H185.17z" fill="#FAE7E3" p-id="1717"></path><path d="M812.81 958.81H211.65c-35.04 0-63.58-28.53-63.58-63.58V215.97c0-35.04 28.53-63.54 63.58-63.54H325.2c20.59 0 37.29 16.69 37.29 37.29s-16.69 37.29-37.29 37.29H222.65v657.23h579.17V227.01H699.3c-20.59 0-37.29-16.69-37.29-37.29s16.69-37.29 37.29-37.29h113.51c35.04 0 63.58 28.5 63.58 63.54v679.26c-0.01 35.04-28.54 63.58-63.58 63.58z m0-731.8h0.37-0.37z" fill="#3A2931" p-id="1718"></path><path d="M494.53 744.66c-104.24 0-189.07-84.83-189.07-189.07 0-104.28 84.83-189.11 189.07-189.11 104.28 0 189.11 84.83 189.11 189.11 0 104.24-84.83 189.07-189.11 189.07z m0-303.62c-63.13 0-114.5 51.37-114.5 114.54 0 63.13 51.37 114.5 114.5 114.5 63.17 0 114.54-51.37 114.54-114.5 0-63.17-51.37-114.54-114.54-114.54z" fill="#3A2931" p-id="1719"></path><path d="M681.76 770.65c-9.52 0-19.08-3.64-26.33-10.92l-57.14-57.1c-14.56-14.56-14.6-38.17-0.04-52.69 14.56-14.56 38.2-14.6 52.69-0.04l57.14 57.1c14.56 14.56 14.6 38.13 0.04 52.69a37.196 37.196 0 0 1-26.36 10.96z" fill="#3A2931" p-id="1720"></path><path d="M609.43 316.69h-194.4c-70.08 0-127.15-57.07-127.15-127.15S344.94 62.39 415.03 62.39h194.4c70.08 0 127.15 57.07 127.15 127.15s-57.06 127.15-127.15 127.15z m-194.4-179.73c-29.01 0-52.58 23.57-52.58 52.58s23.57 52.58 52.58 52.58h194.4c29.01 0 52.58-23.57 52.58-52.58s-23.57-52.58-52.58-52.58h-194.4z" fill="#E23B28" p-id="1721"></path></svg>