<?xml version="1.0" standalone="no"?><!DOCTYPE svg PUBLIC "-//W3C//DTD SVG 1.1//EN" "http://www.w3.org/Graphics/SVG/1.1/DTD/svg11.dtd"><svg t="1632311038181" class="icon" viewBox="0 0 1024 1024" version="1.1" xmlns="http://www.w3.org/2000/svg" p-id="1249" xmlns:xlink="http://www.w3.org/1999/xlink" width="128" height="128"><defs><style type="text/css"></style></defs><path d="M923.45 818.49c-20.4 0-36.91-16.51-36.91-36.91V541.62c0-206.4-167.95-374.35-374.35-374.35S137.84 335.22 137.84 541.62v239.96c0 20.4-16.51 36.91-36.91 36.91s-36.91-16.51-36.91-36.91V541.62c0-247.13 201.03-448.16 448.16-448.16s448.16 201.03 448.16 448.16v239.96c0.01 20.4-16.49 36.91-36.89 36.91z" fill="#3A2931" p-id="1250"></path><path d="M215.5 930.64c-83.54 0-151.48-67.97-151.48-151.51V721.1c0-83.54 67.94-151.48 151.48-151.48s151.48 67.94 151.48 151.48v58.03c0 83.54-67.93 151.51-151.48 151.51z m0-287.2c-42.82 0-77.67 34.85-77.67 77.67v58.03c0 42.85 34.85 77.7 77.67 77.7s77.67-34.85 77.67-77.7V721.1c0-42.81-34.85-77.66-77.67-77.66z" fill="#3A2931" p-id="1251"></path><path d="M812.83 930.63h-7.82c-81.47 0-147.51-66.04-147.51-147.51v-65.16c0-81.47 66.04-147.51 147.51-147.51h7.82c81.47 0 147.51 66.04 147.51 147.51v65.16c0 81.46-66.04 147.51-147.51 147.51z" fill="#E23B28" p-id="1252"></path><path d="M769.77 497.62c-17.23 0-32.62-12.11-36.15-29.63-5.19-25.84-16.4-50.38-32.36-70.93-24.04-30.85-53.52-46.6-73.99-54.39-19.07-7.21-28.65-28.54-21.41-47.57 7.24-19.07 28.69-28.69 47.57-21.41 29.34 11.1 71.54 33.7 106.07 78.03 22.99 29.55 39.03 64.73 46.49 101.71 4 19.97-8.94 39.43-28.9 43.46-2.45 0.51-4.9 0.73-7.32 0.73z" fill="#3A2931" p-id="1253"></path></svg>