<?xml version="1.0" standalone="no"?><!DOCTYPE svg PUBLIC "-//W3C//DTD SVG 1.1//EN" "http://www.w3.org/Graphics/SVG/1.1/DTD/svg11.dtd"><svg t="1632311549701" class="icon" viewBox="0 0 1024 1024" version="1.1" xmlns="http://www.w3.org/2000/svg" p-id="1873" xmlns:xlink="http://www.w3.org/1999/xlink" width="128" height="128"><defs><style type="text/css"></style></defs><path d="M718.612 706.382l106.75-449.597 43.849 10.411-106.75 449.597z" fill="#FAE7E3" p-id="1874"></path><path d="M254.84 695.78h546.32v44.77H254.84z" fill="#FAE7E3" p-id="1875"></path><path d="M805.04 959.56H221.27c-20.62 0-37.31-16.71-37.31-37.31 0-20.61 16.69-37.31 37.31-37.31h583.76c20.62 0 37.31 16.71 37.31 37.31 0.01 20.6-16.68 37.31-37.3 37.31zM786.85 814.12H239.49c-17.34 0-32.39-11.95-36.33-28.84l-133.18-571a37.282 37.282 0 0 1 17.49-40.68c14.06-8.25 31.96-6.39 44.02 4.68l169.29 154.86L481.84 80.92c1.86-2.84 4.08-5.43 6.63-7.67 9.73-8.58 23.47-11.68 36.18-7.62a37.29 37.29 0 0 1 20.73 16.58l180.15 250.93 169.29-154.86c12.02-11.08 29.92-12.94 44.02-4.68a37.282 37.282 0 0 1 17.49 40.68l-133.15 571c-3.93 16.89-18.98 28.84-36.33 28.84z m-517.74-74.63h488.12l99.07-424.82-111.39 101.9c-7.83 7.2-18.58 10.64-29.04 9.58-10.6-1.09-20.22-6.69-26.45-15.36L513.17 165.28 336.89 410.79c-6.23 8.67-15.85 14.27-26.45 15.36-10.68 1.06-21.21-2.39-29.04-9.58L170 314.67l99.11 424.82z" fill="#3A2931" p-id="1876"></path><path d="M594.46 650.97H431.84c-20.62 0-37.31-16.71-37.31-37.31s16.69-37.31 37.31-37.31h162.62c20.62 0 37.31 16.71 37.31 37.31s-16.68 37.31-37.31 37.31z" fill="#E23B28" p-id="1877"></path></svg>