<?xml version="1.0" standalone="no"?><!DOCTYPE svg PUBLIC "-//W3C//DTD SVG 1.1//EN" "http://www.w3.org/Graphics/SVG/1.1/DTD/svg11.dtd"><svg t="1632310895568" class="icon" viewBox="0 0 1024 1024" version="1.1" xmlns="http://www.w3.org/2000/svg" p-id="1094" xmlns:xlink="http://www.w3.org/1999/xlink" width="128" height="128"><defs><style type="text/css"></style></defs><path d="M843.64 284.47H170.45c-60.78 0-110.24-49.46-110.24-110.28 0-60.78 49.46-110.24 110.24-110.24h673.19c20.88 0 37.77 16.89 37.77 37.77V246.7c0 20.88-16.89 37.77-37.77 37.77zM170.45 139.48c-19.14 0-34.71 15.56-34.71 34.71s15.56 34.74 34.71 34.74h635.42v-69.45H170.45z" fill="#3A2931" p-id="1095"></path><path d="M844.28 254.74h45.32v641.15h-45.32z" fill="#FAE7E3" p-id="1096"></path><path d="M84.9 838.97h788.32v45.32H84.9z" fill="#FAE7E3" p-id="1097"></path><path d="M927.48 708.92H734.32a37.76 37.76 0 0 1-28.4-12.87l-72.18-82.21c-12.69-14.42-12.5-36.07 0.37-50.31l72.22-79.59a37.71 37.71 0 0 1 27.99-12.43h193.16c20.88 0 37.77 16.89 37.77 37.77v161.88c0 20.87-16.9 37.76-37.77 37.76z m-176.04-75.53h138.27v-86.34H751.07l-38.36 42.27 38.73 44.07z" fill="#E23B28" p-id="1098"></path><path d="M927.48 959.73H97.98c-20.88 0-37.77-16.89-37.77-37.77V174.45c0-20.88 16.89-37.77 37.77-37.77s37.77 16.89 37.77 37.77v709.74h753.97V284.47H283.79c-20.88 0-37.77-16.89-37.77-37.77s16.89-37.77 37.77-37.77h643.68c20.88 0 37.77 16.89 37.77 37.77v675.26c0.01 20.87-16.89 37.77-37.76 37.77z" fill="#3A2931" p-id="1099"></path></svg>