<?xml version="1.0" standalone="no"?><!DOCTYPE svg PUBLIC "-//W3C//DTD SVG 1.1//EN" "http://www.w3.org/Graphics/SVG/1.1/DTD/svg11.dtd"><svg t="1632311223065" class="icon" viewBox="0 0 1024 1024" version="1.1" xmlns="http://www.w3.org/2000/svg" p-id="1558" xmlns:xlink="http://www.w3.org/1999/xlink" width="128" height="128"><defs><style type="text/css"></style></defs><path d="M301.69 456.69m-50.45 0a50.45 50.45 0 1 0 100.9 0 50.45 50.45 0 1 0-100.9 0Z" fill="#E23B28" p-id="1559"></path><path d="M512.8 456.69m-50.45 0a50.45 50.45 0 1 0 100.9 0 50.45 50.45 0 1 0-100.9 0Z" fill="#E23B28" p-id="1560"></path><path d="M709.53 456.69m-50.45 0a50.45 50.45 0 1 0 100.9 0 50.45 50.45 0 1 0-100.9 0Z" fill="#E23B28" p-id="1561"></path><path d="M383.39 688.62H111.93v10.67c0 27.39 22.2 49.59 49.59 49.59h202.11l108.05 103c19.16 18.26 49.28 18.26 68.44 0l108.05-103H446.61l-63.22-60.26z" fill="#FAE7E3" p-id="1562"></path><path d="M878.79 126.56h-28.53v520.99c0 22.67-18.37 41.04-41.04 41.04H618.49l-62.92 60.19h323.22c27.36 0 49.64-22.28 49.64-49.63V176.2c-0.01-27.36-22.29-49.64-49.64-49.64z" fill="#FAE7E3" p-id="1563"></path><path d="M871.5 802.84H640.87c-21.58 0-39.08-17.48-39.08-39.08s17.5-39.08 39.08-39.08H871.5c5.8 0 10.52-4.69 10.52-10.5V191.12c0-5.8-4.71-10.5-10.52-10.5H154.23c-5.8 0-10.52 4.69-10.52 10.5v523.05c0 5.8 4.71 10.5 10.52 10.5h202.1c21.58 0 39.08 17.48 39.08 39.08s-17.5 39.08-39.08 39.08h-202.1c-48.89 0-88.68-39.77-88.68-88.66V191.12c0-48.89 39.79-88.66 88.68-88.66H871.5c48.89 0 88.68 39.77 88.68 88.66v523.05c0.01 48.9-39.78 88.67-88.68 88.67z" fill="#3A2931" p-id="1564"></path><path d="M498.6 919.56c-22.02 0-44.03-8.17-61.16-24.47L329.37 792.04c-15.63-14.89-16.22-39.62-1.32-55.27 14.9-15.61 39.68-16.18 55.25-1.3l108.05 103.02c4.05 3.82 10.44 3.85 14.52-0.04L613.9 735.47c15.57-14.89 40.34-14.35 55.25 1.3 14.9 15.65 14.31 40.38-1.32 55.27L559.79 895.05c-17.16 16.34-39.18 24.51-61.19 24.51z" fill="#3A2931" p-id="1565"></path></svg>